Coordinates
version=1
nRows=15
nColumns=63
inDegrees=yes

Units are S.I. units (second, meters, Newtons, ...)
If the header above contains a line with 'inDegrees', this indicates whether rotational values are in degrees (yes) or radians (no).

endheader
time	pelvis_tilt	pelvis_list	pelvis_rotation	pelvis_tx	pelvis_ty	pelvis_tz	hip_flexion_r	hip_adduction_r	hip_rotation_r	knee_angle_r	knee_angle_r_beta	ankle_angle_r	subtalar_angle_r	mtp_angle_r	hip_flexion_l	hip_adduction_l	hip_rotation_l	knee_angle_l	knee_angle_l_beta	ankle_angle_l	subtalar_angle_l	mtp_angle_l	L5_S1_Flex_Ext	L5_S1_Lat_Bending	L5_S1_axial_rotation	L4_L5_Flex_Ext	L4_L5_Lat_Bending	L4_L5_axial_rotation	L3_L4_Flex_Ext	L3_L4_Lat_Bending	L3_L4_axial_rotation	L2_L3_Flex_Ext	L2_L3_Lat_Bending	L2_L3_axial_rotation	L1_L2_Flex_Ext	L1_L2_Lat_Bending	L1_L2_axial_rotation	L1_T12_Flex_Ext	L1_T12_Lat_Bending	L1_T12_axial_rotation	Abs_r3	Abs_r2	Abs_r1	Abs_t1	Abs_t2	neck_flexion	neck_bending	neck_rotation	arm_flex_r	arm_add_r	arm_rot_r	elbow_flex_r	pro_sup_r	wrist_flex_r	wrist_dev_r	arm_flex_l	arm_add_l	arm_rot_l	elbow_flex_l	pro_sup_l	wrist_flex_l	wrist_dev_l
0.000000	1.721244	-4.564913	107.222147	0.259812	0.656345	0.937245	3.675186	1.898969	-10.106021	2.130551	0.037185	17.349103	3.030834	0.000000	9.242024	-0.666924	1.865138	9.391060	0.163905	22.144926	8.840078	0.000000	0.395768	0.114958	-1.512826	0.734981	0.152894	-1.607378	0.650207	0.279508	-1.607378	0.452323	0.279508	-1.323723	0.367510	0.234422	-1.229172	0.226142	0.178069	-1.134620	2.826930	1.300424	-8.413887	0.000000	0.000000	28.239100	-3.898447	-5.220806	11.722169	-9.075359	62.363641	50.244308	57.669837	6.932964	11.324980	5.319150	-14.261357	49.623268	59.603110	56.443144	-10.925156	12.204377
0.016949	1.970760	-4.627600	107.352596	0.259108	0.656002	0.940460	4.230494	1.944775	-11.861431	2.591924	0.045238	17.499883	5.083320	0.000000	9.728157	-0.777206	1.653968	9.793348	0.170926	21.854408	9.003423	0.000000	0.385115	0.155773	-1.742779	0.715197	0.207178	-1.851703	0.632705	0.378746	-1.851703	0.440148	0.378746	-1.524932	0.357618	0.317652	-1.416008	0.220055	0.241292	-1.307084	2.750837	1.762135	-9.692813	0.000000	0.000000	28.235529	-3.130565	-3.240415	13.346563	-9.055815	65.524991	50.051910	58.375591	5.997513	10.291081	4.975154	-14.176115	47.839261	59.774039	55.250953	-10.094225	13.801731
0.033898	2.160774	-4.653600	107.424213	0.258458	0.655753	0.943141	4.653192	1.967076	-13.319140	2.974494	0.051915	17.641746	6.821720	0.000000	10.045467	-0.849085	1.625402	10.032086	0.175093	21.543714	8.913989	0.000000	0.375413	0.188252	-1.940356	0.697180	0.250375	-2.061628	0.616766	0.457716	-2.061628	0.429060	0.457716	-1.697811	0.348609	0.383883	-1.576539	0.214511	0.291602	-1.455267	2.681538	2.129544	-10.791677	0.000000	0.000000	28.229531	-2.400659	-1.448833	14.729150	-9.012876	68.223274	49.878111	58.657365	5.239372	9.398782	4.671662	-14.134026	46.384604	59.902268	54.287120	-9.380195	14.973736
0.050847	2.295746	-4.646737	107.441625	0.257857	0.655591	0.945326	4.955377	1.967137	-14.500632	3.285945	0.057351	17.774395	8.267594	0.000000	10.209878	-0.885440	1.758065	10.123665	0.176691	21.216403	8.600618	0.000000	0.366641	0.213083	-2.107485	0.680889	0.283400	-2.239203	0.602354	0.518089	-2.239203	0.419034	0.518089	-1.844049	0.340463	0.434518	-1.712332	0.209499	0.330065	-1.580614	2.618879	2.410432	-11.721199	0.000000	0.000000	28.221359	-1.709754	0.165030	15.885693	-8.948710	70.487456	49.721219	58.575461	4.642763	8.637600	4.404883	-14.128610	45.226530	59.991029	53.524086	-8.773928	15.765553
0.067797	2.380136	-4.610837	107.409459	0.257303	0.655509	0.947052	5.149145	1.946224	-15.427391	3.533960	0.061679	17.897536	9.442504	0.000000	10.237312	-0.889149	2.030577	10.084479	0.176007	20.876040	8.092149	0.000000	0.358777	0.230953	-2.246094	0.666284	0.307167	-2.386475	0.589434	0.561538	-2.386475	0.410046	0.561538	-1.965332	0.333160	0.470958	-1.824951	0.205005	0.357745	-1.684570	2.562705	2.612581	-12.492100	0.000000	0.000000	28.211261	-1.058879	1.612257	16.831956	-8.865487	72.346500	49.579542	58.190181	4.191913	7.997056	4.171028	-14.153386	44.332271	60.043555	52.934288	-8.266284	16.222345
0.084746	2.418405	-4.549724	107.332346	0.256792	0.655499	0.948357	5.246593	1.905603	-16.120901	3.726225	0.065035	18.010872	10.368011	0.000000	10.143692	-0.863090	2.421564	9.930922	0.173327	20.526184	7.417422	0.000000	0.351799	0.242550	-2.358110	0.653326	0.322591	-2.505492	0.577970	0.589735	-2.505492	0.402071	0.589735	-2.063346	0.326680	0.494607	-1.915964	0.201018	0.375710	-1.768583	2.512864	2.743771	-13.115101	0.000000	0.000000	28.199487	-0.449059	2.903937	17.583702	-8.765374	73.829373	49.451390	57.561824	3.871044	7.466668	3.966304	-14.201872	43.669060	60.063078	52.490164	-7.848123	16.389271
0.101695	2.415011	-4.467223	107.214912	0.256322	0.655556	0.949278	5.259815	1.846539	-16.602645	3.870423	0.067552	18.114106	11.065674	0.000000	9.944941	-0.810141	2.909648	9.679386	0.168937	20.170398	6.605278	0.000000	0.345686	0.248562	-2.445461	0.641973	0.330587	-2.598303	0.567927	0.604354	-2.598303	0.395084	0.604354	-2.139779	0.321004	0.506868	-1.986937	0.197525	0.385022	-1.834096	2.469200	2.811782	-13.600922	0.000000	0.000000	28.186288	0.118679	4.051156	18.156694	-8.650543	74.965040	49.335072	56.750693	3.664381	7.035957	3.786921	-14.267587	43.204129	60.052831	52.164152	-7.510306	16.311495
0.118644	2.374416	-4.367158	107.061786	0.255889	0.655671	0.949852	5.200909	1.770298	-16.894108	3.974238	0.069364	18.206944	11.557057	0.000000	9.656981	-0.733181	3.473451	9.346264	0.163123	19.812245	5.684557	0.000000	0.340416	0.249677	-2.510075	0.632187	0.332070	-2.666955	0.559270	0.607065	-2.666955	0.389062	0.607065	-2.196316	0.316111	0.509141	-2.039436	0.194514	0.386750	-1.882556	2.431560	2.824396	-13.960284	0.000000	0.000000	28.171914	0.643308	5.064999	18.566695	-8.523160	75.782466	49.228896	55.817089	3.556147	6.694441	3.629088	-14.344051	42.904710	60.016048	51.928691	-7.243695	16.034177
0.135593	2.301079	-4.253354	106.877597	0.255491	0.655839	0.950117	5.081971	1.678146	-17.016772	4.045354	0.070605	18.289089	11.863718	0.000000	9.295735	-0.635088	4.091597	8.947951	0.156171	19.455285	4.684099	0.000000	0.335969	0.246583	-2.553879	0.623927	0.327955	-2.713496	0.551963	0.599541	-2.713496	0.383978	0.599541	-2.234644	0.311980	0.502832	-2.075026	0.191972	0.381957	-1.915409	2.399790	2.789394	-14.203907	0.000000	0.000000	28.156613	1.123801	5.956554	18.829469	-8.385395	76.310616	49.131172	54.821314	3.530566	6.431639	3.489014	-14.424782	42.738036	59.955960	51.756219	-7.039148	15.602478
0.152542	2.199460	-4.129637	106.666973	0.255123	0.656052	0.950110	4.915096	1.571349	-16.992123	4.091457	0.071409	18.360246	12.007219	0.000000	8.877125	-0.518740	4.742709	8.500838	0.148368	19.103080	3.632744	0.000000	0.332321	0.239967	-2.578800	0.617153	0.319156	-2.739975	0.545970	0.583456	-2.739975	0.379810	0.583456	-2.256450	0.308593	0.489341	-2.095275	0.189888	0.371709	-1.934100	2.373736	2.714556	-14.342513	0.000000	0.000000	28.140638	1.559132	6.736906	18.960779	-8.239417	76.578455	49.040208	53.823667	3.571863	6.237072	3.362909	-14.503300	42.671338	59.875800	51.619175	-6.887528	15.061560
0.169492	2.074020	-3.999830	106.434542	0.254783	0.656303	0.949869	4.712381	1.451171	-16.841642	4.120229	0.071912	18.420117	12.009121	0.000000	8.417076	-0.387017	5.405411	8.021320	0.139998	18.759192	2.559333	0.000000	0.329452	0.230518	-2.586767	0.611825	0.306589	-2.748440	0.541257	0.560481	-2.748440	0.376531	0.560481	-2.263421	0.305929	0.470072	-2.101748	0.188249	0.357072	-1.940075	2.353243	2.607662	-14.386822	0.000000	0.000000	28.124236	1.948274	7.417143	18.976387	-8.087395	76.614949	48.954314	52.884452	3.664262	6.100257	3.246981	-14.573122	42.671850	59.778802	51.489996	-6.779695	14.456584
0.186441	1.930705	-3.870298	106.179824	0.254460	0.656585	0.949453	4.509683	1.309234	-16.705427	4.165019	0.072693	18.510667	12.102718	0.000000	7.929308	-0.243004	6.064211	7.524465	0.131327	18.365185	1.456627	0.000000	0.326134	0.219745	-2.575665	0.605664	0.292261	-2.736644	0.535806	0.534288	-2.736644	0.372739	0.534288	-2.253706	0.302848	0.448104	-2.092727	0.186353	0.340385	-1.931748	2.329543	2.485800	-14.325073	0.000000	0.000000	28.104735	2.341176	8.090007	18.934157	-7.948245	76.488302	48.872569	52.222694	3.823315	6.054188	3.154198	-14.574793	42.575719	59.688411	51.225926	-6.645861	14.218566
0.203390	1.774370	-3.743810	105.953183	0.254118	0.656904	0.948860	4.273716	1.168407	-16.364085	4.175176	0.072871	18.525000	11.840348	0.000000	7.456693	-0.091785	6.633076	7.060787	0.123234	18.050771	0.538600	0.000000	0.324677	0.207368	-2.560346	0.602957	0.275799	-2.720368	0.533411	0.504194	-2.720368	0.371073	0.504194	-2.240303	0.301495	0.422864	-2.080281	0.185520	0.321213	-1.920260	2.319133	2.345785	-14.239878	0.000000	0.000000	28.088463	2.620229	8.596953	18.825705	-7.802161	76.266894	48.793637	51.467183	3.946191	5.993563	3.038060	-14.574402	42.499755	59.584280	50.935527	-6.577885	13.783181
0.220339	1.604550	-3.627094	105.715988	0.253791	0.657250	0.948138	4.046216	1.010129	-15.952265	4.210478	0.073487	18.517881	11.462826	0.000000	7.001396	0.070466	7.122922	6.619326	0.115529	17.775274	-0.275005	0.000000	0.325323	0.194316	-2.535192	0.604157	0.258440	-2.693641	0.534473	0.472459	-2.693641	0.371811	0.472459	-2.218293	0.302095	0.396248	-2.059843	0.185889	0.300995	-1.901394	2.323748	2.198137	-14.099976	0.000000	0.000000	28.074299	2.841807	9.049289	18.632359	-7.646451	75.860231	48.710965	51.238367	4.032369	5.903038	2.895934	-14.545020	42.377744	59.466435	50.542605	-6.545826	13.366405
0.237288	1.427348	-3.513815	105.486694	0.253479	0.657621	0.947333	3.817844	0.848332	-15.458522	4.246880	0.074122	18.478806	10.932454	0.000000	6.571361	0.238241	7.555471	6.224169	0.108632	17.537062	-0.997496	0.000000	0.326681	0.181277	-2.508716	0.606679	0.241099	-2.665511	0.536704	0.440757	-2.665511	0.373363	0.440757	-2.195127	0.303356	0.369660	-2.038332	0.186665	0.280798	-1.881537	2.333447	2.050643	-13.952728	0.000000	0.000000	28.059376	3.017275	9.486510	18.406146	-7.480607	75.431448	48.609113	51.473617	4.026848	5.727180	2.728502	-14.500573	42.211734	59.340001	50.134622	-6.544848	12.967047
